<?xml version="1.0" encoding="UTF-8" standalone="no"?>
<!-- Generator: Adobe Illustrator 19.0.0, SVG Export Plug-In . SVG Version: 6.00 Build 0)  -->

<!--   width="100.59995" -->
<!--   height="307.70001" -->

<svg
   id="#@ID_DEVICE@#_#@DEVICE_TYPE@#"
   device_type="#@DEVICE_TYPE@#"
   width="#@WIDTH@#"
   height="#@HEIGHT@#"
   viewBox="0 0 100.59995 307.70001"
   version="1.1"
   xml:space="preserve"
   sodipodi:docname="water-heater.svg"
   inkscape:version="1.4.3 (0d15f75042, 2025-12-25)"
   xmlns:inkscape="http://www.inkscape.org/namespaces/inkscape"
   xmlns:sodipodi="http://sodipodi.sourceforge.net/DTD/sodipodi-0.dtd"
   xmlns="http://www.w3.org/2000/svg"
   xmlns:svg="http://www.w3.org/2000/svg">

   <defs id="defs39" />

   <sodipodi:namedview
	   id="namedview39"
	   pagecolor="#ffffff"
	   bordercolor="#999999"
	   borderopacity="1"
	   inkscape:showpageshadow="2"
	   inkscape:pageopacity="0"
	   inkscape:pagecheckerboard="0"
	   inkscape:deskcolor="#d1d1d1"
	   inkscape:zoom="1.8673391"
	   inkscape:cx="46.590359"
	   inkscape:cy="156.10448"
	   inkscape:window-width="1416"
	   inkscape:window-height="850"
	   inkscape:window-x="0"
	   inkscape:window-y="0"
	   inkscape:window-maximized="1"
	   inkscape:current-layer="Layer_1" />
	
	<style type="text/css" id="style1">
		.st0{fill:#808285;}
		.st1{fill:#EEF1F2;}
		.st2{fill:#DCE1E2;}
		.st3{fill:#F5F7F7;}
		.st4{fill:#878684;}
		.st5{fill:#6D6C6B;}
		.st6{fill:#999898;}
		.st7{fill:#BBB1A7;}
		.st8{fill:#AA9F94;}
		.st9{fill:#CEC7BF;}
		.st10{fill:#BAB3AB;}
		.st11{fill:#D34640;}
		.st12{fill:#F04F55;}
		.st13{fill:#AE2627;}
		.st14{fill:#26A9D5;}
		.st15{fill:#69CDEB;}
		.st16{fill:#178CA8;}
		.st17{fill:#3A3A3A;}
		.st18{fill:#F2E359;}
		.st19{fill:#EF4136;}
		.st20{fill:#F7941E;}
		.st21{fill:#E2DEDC;}
		.st22{fill:#EFEAE7;}
		.st23{fill:#CEC8C4;}
		.st24{fill:#F2F2F0;}
		.st25{fill:#D3D3CF;}
		.st26{fill:#D3D3D3;}
		.st27{fill:#E3EDF7;}
		.st28{fill:#EAEFF3;}
		.st29{fill:#D0DBE5;}
		.st30{fill:#B9C9D5;}
		.st31{fill:#D3DDE2;}
		.st32{fill:#A0B2BC;}
		.st33{fill:#324776;}
		.st34{fill:#1D3151;}
		.st35{fill:#F0F4F7;}
		.st36{fill:#D7DCE0;}
		.st37{fill:#A5AFB6;}
		.st38{fill:#C8CACB;}
		.st39{fill:#979A9B;}
		.st40{fill:#E9CC89;}
		.st41{fill:#EFE0C2;}
		.st42{fill:#C39C4D;}
		.st43{fill:#D3D6DB;}
		.st44{fill:#E5E7EA;}
		.st45{fill:#B2B8BF;}
		.st46{fill:#EFEFEF;}
		.st47{fill:#D1D3D8;}
		.st48{fill:#C4CDCD;}
		.st49{fill:#A5B5B4;}
		.st50{fill:#A57E36;}
		.st51{fill:#3D5680;}
		.st52{fill:#23375B;}
		.st53{fill:#38517B;}
		.st54{fill:#D1D6D8;}
		.st55{fill:#DCDFE0;}
		.st56{fill:#B7C1C4;}
		.st57{fill:#535554;}
		.st58{fill:#C6C2B7;}
		.st59{fill:#A9A497;}
		.st60{fill:#CEDBE8;}
		.st61{fill:#E4EAEE;}
		.st62{fill:#AFC0CE;}
		.st63{fill:#EEF0F2;}
		.st64{fill:#181919;}
		.st65{fill:#39B54A;}
		.st66{fill:#ED1C24;}
		.st67{fill:#565656;}
		.st68{fill:#C4782B;}
		.st69{fill:#FCB556;}
		.st70{fill:#E09242;}
		.st71{fill:#C6C2C1;}
		.st72{fill:#59595A;}
		.st73{fill:#919191;}
		.st74{fill:#D8D4D2;}
		.st75{fill:#4B4642;}
		.st76{fill:#A87747;}
		.st77{fill:#BECACB;}
		.st78{fill:#97A5A4;}
		.st79{fill:#D1D2D1;}
		.st80{fill:#B6BDBF;}
		.st81{fill:#DEE0E0;}
		.st82{fill:#F9F9FA;}
		.st83{fill:#EAEAEA;}
		.st84{fill:#FFFFFF;}
		.st85{fill:#D4DBDD;}
		.st86{fill:#B4BDBF;}
	</style>

	<g
	   id="g39"
	   transform="translate(-1132.9,-163.89999)">
		<g
	   id="g5">
			<g
	   id="g2">
				<rect
	   x="1147.1"
	   y="467"
	   class="st38"
	   width="12.9"
	   height="4.5999999"
	   id="rect1" />
				<rect
	   x="1147.1"
	   y="467"
	   class="st39"
	   width="12.9"
	   height="1.5"
	   id="rect2" />
			</g>
			<g
	   id="g4">
				<rect
	   x="1206.4"
	   y="467"
	   class="st38"
	   width="12.9"
	   height="4.5999999"
	   id="rect3" />
				<rect
	   x="1206.4"
	   y="467"
	   class="st39"
	   width="12.9"
	   height="1.5"
	   id="rect4" />
			</g>
		</g>
		<g
	   id="g9">
			<rect
	   x="1137.1"
	   y="194.2"
	   class="st1"
	   width="92.099998"
	   height="272.79999"
	   id="rect5" />
			<rect
	   x="1206.4"
	   y="194.2"
	   class="st2"
	   width="22.799999"
	   height="272.79999"
	   id="rect6" />
			<rect
	   x="1144.3"
	   y="194.2"
	   class="st3"
	   width="12.1"
	   height="272.79999"
	   id="rect7" />
			<rect
	   x="1137.1"
	   y="194.2"
	   class="st33"
	   width="92.099998"
	   height="9"
	   id="rect8" />
			<rect
	   x="1137.1"
	   y="458"
	   class="st33"
	   width="92.099998"
	   height="9"
	   id="rect9" />
		</g>
		<g
	   id="g16">
			<g
	   id="g12">
				<rect
	   x="1151.7"
	   y="180"
	   class="st40"
	   width="6.4000001"
	   height="14.2"
	   id="rect10" />
				<rect
	   x="1152.4"
	   y="180"
	   class="st41"
	   width="1.4"
	   height="14.2"
	   id="rect11" />
				<rect
	   x="1154.9"
	   y="180"
	   class="st42"
	   width="3.2"
	   height="14.2"
	   id="rect12" />
			</g>
			<g
	   id="g15">
				<rect
	   x="1208.2"
	   y="180"
	   class="st40"
	   width="6.4000001"
	   height="14.2"
	   id="rect13" />
				<rect
	   x="1208.8"
	   y="180"
	   class="st41"
	   width="1.4"
	   height="14.2"
	   id="rect14" />
				<rect
	   x="1211.4"
	   y="180"
	   class="st42"
	   width="3.2"
	   height="14.2"
	   id="rect15" />
			</g>
		</g>
		<g
	   id="g22">
			<g
	   id="g18">
				<rect
	   x="1173"
	   y="163.89999"
	   class="st43"
	   width="20.299999"
	   height="30.299999"
	   id="rect16" />
				<rect
	   x="1174.7"
	   y="163.89999"
	   class="st44"
	   width="2.5"
	   height="30.299999"
	   id="rect17" />
				<rect
	   x="1184.3"
	   y="163.89999"
	   class="st45"
	   width="9"
	   height="30.299999"
	   id="rect18" />
			</g>
			<polygon
	   class="st44"
	   points="1173,175.6 1193.3,175.6 1202.4,185.5 1163.9,185.5 "
	   id="polygon18" />
			<polygon
	   class="st46"
	   points="1172.9,185.5 1177.7,175.6 1173,175.6 1163.9,185.5 "
	   id="polygon19" />
			<polygon
	   class="st47"
	   points="1193.4,185.5 1202.4,185.5 1193.3,175.6 1188.6,175.6 "
	   id="polygon20" />
			<g
	   id="g21">
				<rect
	   x="1167.5"
	   y="185.5"
	   class="st45"
	   width="1.6"
	   height="8.6999998"
	   id="rect20" />
				<rect
	   x="1197.2"
	   y="185.5"
	   class="st45"
	   width="1.6"
	   height="8.6999998"
	   id="rect21" />
			</g>
		</g>
		<g
	   id="g26">
			<ellipse
	   class="st48"
	   cx="1219.7"
	   cy="240.89999"
	   rx="5.9000001"
	   ry="11.5"
	   id="ellipse22" />
			<path
	   class="st49"
	   d="m 1222.8,250.7 c 1.4,-1.7 2.4,-4.6 2.7,-7.9 l -1.2,-1.9 -4.5,2.8 z"
	   id="path22" />
			<g
	   id="g25">
				<path
	   class="st40"
	   d="m 1220.3,237.8 c -1,0 -1.8,1.3 -1.8,3 0,1.6 0.8,3 1.8,3 h 11.4 v -6 z"
	   id="path23" />
				<path
	   class="st41"
	   d="m 1218.7,239.6 h 13 v -1.2 h -12.4 c -0.3,0.4 -0.5,0.8 -0.6,1.2 z"
	   id="path24" />
				<path
	   class="st42"
	   d="m 1218.6,241.5 c 0.2,1.3 0.9,2.3 1.7,2.3 h 11.4 v -2.3 z"
	   id="path25" />
				<ellipse
	   class="st50"
	   cx="1231.7"
	   cy="240.8"
	   rx="1.8"
	   ry="3"
	   id="ellipse25" />
			</g>
		</g>
		<g
	   id="g29">
			<rect
	   x="1160.3"
	   y="438.39999"
	   class="st33"
	   width="45.799999"
	   height="19.6"
	   id="rect26" />
			<rect
	   x="1179.1"
	   y="438.39999"
	   class="st51"
	   width="8.1000004"
	   height="19.6"
	   id="rect27" />
			<rect
	   x="1187.2"
	   y="438.39999"
	   class="st52"
	   width="2"
	   height="19.6"
	   id="rect28" />
			<rect
	   x="1177.1"
	   y="438.39999"
	   class="st53"
	   width="2"
	   height="19.6"
	   id="rect29" />
		</g>
		<rect
	   x="1175"
	   y="417.20001"
	   class="st54"
	   width="16.299999"
	   height="16.299999"
	   id="rect30" />
		<g
	   id="g32">
			<rect
	   x="1171.8"
	   y="423.10001"
	   class="st55"
	   width="3.2"
	   height="4.5"
	   id="rect31" />
			<rect
	   x="1171.8"
	   y="425.29999"
	   class="st56"
	   width="3.2"
	   height="2.2"
	   id="rect32" />
		</g>
		<g
	   id="g33">
			<circle
	   class="st17"
	   cx="1183.1"
	   cy="425.29999"
	   r="4"
	   id="circle32" />
			<rect
	   x="1178.8"
	   y="424.29999"
	   class="st57"
	   width="8.8000002"
	   height="2.4000001"
	   id="rect33" />
		</g>
		<rect
	   x="1176.9"
	   y="416.29999"
	   class="st55"
	   width="2"
	   height="0.89999998"
	   id="rect34" />
		<path
	   class="st11"
	   d="m 1178.7,415.2 h -1.7 c -0.3,0 -0.6,0.3 -0.6,0.6 v 0.5 h 2.8 v -0.5 c 0.1,-0.3 -0.2,-0.6 -0.5,-0.6 z"
	   id="path34" />
		<polygon
	   class="st17"
	   points="1181.4,415.4 1181.4,416.3 1180.2,416.3 1180.2,417.2 1181.4,417.2 1184.9,417.2 1186.1,417.2 1186.1,416.3 1184.9,416.3 1184.9,415.4 "
	   id="polygon34" />
		<g
	   id="g37">
			<rect
	   x="1181.9"
	   y="433.39999"
	   class="st58"
	   width="2.5999999"
	   height="5"
	   id="rect35" />
			<rect
	   x="1181.9"
	   y="433.39999"
	   class="st59"
	   width="2.5999999"
	   height="0.40000001"
	   id="rect36" />
			<rect
	   x="1183.1"
	   y="433.39999"
	   class="st59"
	   width="1.3"
	   height="5"
	   id="rect37" />
		</g>
		<g
	   id="g38">
			<path
	   class="st58"
	   d="M 1171.8,426.3 H 1145 c -1.9,0 -3.5,-1.6 -3.5,-3.5 v -1.6 c 0,-0.9 -0.7,-1.6 -1.6,-1.6 h -7 v -1.9 h 7 c 2,0 3.5,1.6 3.5,3.5 v 1.6 c 0,0.9 0.7,1.6 1.6,1.6 h 26.8 z"
	   id="path37" />
		</g>
		<rect
	   x="1172.9"
	   y="185.5"
	   class="st45"
	   width="20.4"
	   height="2"
	   id="rect38" />
	</g>
</svg>
